<?xml version="1.0" encoding="UTF-8"?>
<!DOCTYPE svg PUBLIC "-//W3C//DTD SVG 1.1//EN" "http://www.w3.org/Graphics/SVG/1.1/DTD/svg11.dtd">
<!-- Creator: CorelDRAW 2021 (64-Bit) -->
<?xml-stylesheet href="logo.css" type="text/css"?>
<svg xmlns="http://www.w3.org/2000/svg" xml:space="preserve" width="8.5in" height="11in" version="1.1" style="shape-rendering:geometricPrecision; text-rendering:geometricPrecision; image-rendering:optimizeQuality; fill-rule:evenodd; clip-rule:evenodd"
viewBox="0 0 8500 11000"
 xmlns:xlink="http://www.w3.org/1999/xlink"
 xmlns:xodm="http://www.corel.com/coreldraw/odm/2003">
 <g id="Layer_x0020_1">
  <metadata id="CorelCorpID_0Corel-Layer"/>
  <path class="fil0 str0" d="M3662.74 5566.31c-46.56,31.65 -95.04,38.01 -144.77,13.19 -48.61,-24.36 -76.34,-64.49 -80.28,-119.27 -10.77,1.59 -20.63,3.55 -30.7,4.54 -33.92,3.35 -64.87,-5.06 -92.57,-24.58 -17.93,-12.6 -35.51,-25.57 -48.32,-43.79 -35.44,-50.3 -36.74,-117.52 1.54,-168.07 3.72,-4.85 7.29,-9.85 11.19,-15.02 -28.17,-14.65 -55.26,-30.2 -83.54,-43.02 -28.26,-12.75 -57.77,-22.46 -87.8,-33.98 4.34,-10.94 9.12,-23.61 14.1,-36.21 39.89,-100.46 79.73,-200.85 119.69,-301.39 20.59,-52.13 41.47,-104.33 62.11,-156.53 30.57,-77.18 61.12,-154.42 91.69,-231.59 4.5,-11.3 4.72,-11.61 16.78,-7.57 73.17,23.9 148.39,33.15 224.96,28.68 75.37,-4.25 149.05,-18.9 220.14,-44.85 63.24,-22.97 126.14,-46.89 189.46,-69.64 63.85,-22.84 129.75,-32.18 197.54,-29.07 53.43,2.36 105.3,11.17 154.53,32.49 7.82,3.26 15.28,3.94 23.67,3.17 38.17,-4.01 76.3,-2.89 114.36,1.83 103.91,12.51 206.35,33.92 308.64,55.55 29.51,6.37 59.09,13.44 89.05,17.07 57.09,6.74 113.47,0.9 168.47,-16.23 5.51,-1.74 11.12,-3.26 17.58,-5.02 65.44,245.09 130.67,489.73 196.15,735.11 -36.89,21.87 -73.76,43.41 -114.4,57.75 -40.68,14.49 -82.55,19.52 -126.82,15.7 4.2,52.81 -12.16,97.35 -47.86,134.84 -37.09,39 -82.35,49.09 -134.59,35.9 0,46.5 -20,81.78 -56.04,108.28 -35.63,26.1 -75.5,34.82 -116.82,26.63 -3.48,19.05 -4.67,37.95 -10.66,55.09 -19.73,57.15 -63.89,79.38 -119.86,74.75 -16.45,-1.37 -32.69,-4.93 -49.49,-7.6 -1.04,5 -1.76,10.86 -3.13,16.39 -7.16,27.09 -26.36,43.63 -50.46,54.56 -59.23,26.78 -119.99,28.24 -181.89,10.33 -33.92,-9.8 -63.92,-27.93 -95.21,-43.26 -14.96,-7.29 -29.82,-14.41 -45.79,-22.07 -11.17,14.78 -22.42,29.52 -33.48,44.45 -21.74,29.44 -50.07,48.65 -86.39,54.86 -55.44,9.34 -100.3,-10.61 -135.1,-53.32 -10.28,-12.53 -16.85,-28.17 -25.33,-42.88 -36.96,30.42 -80.11,41.8 -127.75,27.78 -47.57,-13.96 -77.66,-46.43 -92.61,-93.94zm431.07 -250.1l0 0c2.58,-0.22 5.07,-0.31 7.65,-0.53 64.93,-9.12 124.15,24.12 150.89,84.51 1.56,3.57 5.15,7.13 8.65,8.9 83.76,44.38 167.35,88.91 251.46,132.33 30.84,15.79 64.05,25.17 99.33,22.99 15.18,-0.93 27,-7.53 36.04,-20.26 14.54,-20.42 14.25,-42.89 10.44,-66.17 -1.26,-7.89 -4.67,-12.6 -11.74,-16.63 -58.35,-33.02 -116.52,-66.38 -174.62,-99.77 -45.77,-26.1 -91.54,-52.29 -137.3,-78.54 -21.45,-12.35 -43.08,-24.51 -64.4,-37.09 -12.51,-7.29 -17.38,-21.04 -12.78,-33.85 4.47,-12.6 17.02,-21.1 30.09,-18.59 6.72,1.21 13.13,4.78 19.07,8.19 113.36,64.8 226.5,129.75 339.94,194.55 25.19,14.43 49.62,30.07 78.47,37.64 62.09,16.39 118.06,-31.12 109.97,-94.4 -0.53,-3.79 -3.37,-8.26 -6.48,-10.24 -108.52,-65.85 -217.06,-131.11 -325.69,-196.66 -30.42,-18.52 -60.92,-36.58 -91.31,-55.17 -15.09,-9.19 -18.96,-25.72 -10.2,-40 8.3,-13.5 25.46,-16.98 39.91,-8.41 139.4,84.38 278.88,168.45 418.32,252.83 15.86,9.65 32.66,16.48 50.72,20.64 26.32,6.08 50.26,2.82 70.83,-16.3 32.09,-29.82 43.48,-66.63 35.88,-109.42 -0.53,-2.73 -3.42,-5.7 -6.04,-7.38 -9.01,-5.83 -19.12,-10.09 -27.42,-16.76 -19.01,-14.95 -37.56,-30.5 -55.5,-46.74 -37.29,-33.08 -73.61,-67.07 -111.14,-100.17 -48.33,-42.4 -103.34,-75.72 -157.5,-110.08 -45.5,-28.92 -91.63,-56.76 -137.81,-84.54 -24.93,-15.11 -50.35,-29.36 -75.77,-43.41 -29.31,-16.3 -58.04,-14.49 -87.06,2.57 -36.19,21.32 -73.3,42.27 -116.27,44.93 -21.21,1.28 -27.8,11.92 -32.6,29.82 -15.48,58.72 -51.56,102.97 -102.09,134.59 -47.35,29.91 -99.95,39.91 -155.19,27.71 -38.87,-8.5 -59.29,-35.81 -59.03,-75.5 0.42,-52.97 17.14,-101.76 37.11,-149.94 6.94,-17.14 13.96,-34.45 19.29,-52.2 2.43,-7.82 0.42,-16.7 1.1,-25.04 2.51,-31.32 3.41,-62.97 8.39,-93.94 5.5,-33.76 26.83,-59.4 50.88,-82.7 67.48,-65.39 146.75,-113.52 230.14,-155.48 17.03,-8.41 35.09,-14.8 53.35,-22.46 -1.59,-0.44 -2.71,-0.81 -3.79,-0.9 -52.66,-6.76 -105.37,-8.19 -157.46,3.19 -68.21,14.93 -133.63,38.85 -198.05,65.39 -77.69,32.11 -157.44,55.63 -240.98,65.5 -69.75,8.2 -139.13,8.72 -208.22,-4.09 -17.38,-3.19 -34.6,-6.83 -52.22,-10.48 -83.72,211.09 -167.26,421.8 -250.54,631.61 44.51,22.62 87.79,44.69 131.27,66.78 20,-26.41 38.9,-52.29 58.7,-77.48 26.63,-33.67 61.8,-52.42 104.71,-53.63 62.62,-1.83 107.53,30.42 141.91,79.6 6.47,9.32 10.15,20.4 15.44,31.48 13.7,-18.22 27.16,-35.66 40.28,-53.5 34.12,-45.83 89.58,-65.94 144.8,-52.35 53.37,12.91 96.78,59.49 105.41,113.14 1.41,8.57 1.89,17.31 2.82,25.94 87.48,-18.65 166.71,49.01 165.91,135.98zm986.37 -869.13l0 0c-2.99,0.46 -5,0.62 -6.98,0.99 -61.82,11.69 -123.65,13.21 -185.67,0 -114.26,-24.27 -228.35,-49.16 -344.34,-64.65 -70.37,-9.41 -139.4,-5.09 -207.83,13.9 -49.03,13.66 -93.48,36.78 -137.08,62.22 -53.33,31.1 -103.67,66.17 -148.45,108.96 -21.06,20.17 -36.98,42.86 -38.81,72.99 -1.48,23.46 -3,47.11 -3.19,70.63 -0.07,23.76 -3.68,46.21 -13.83,67.84 -22.05,46.52 -40.83,94.16 -43.79,146.44 -1.15,18.37 2.51,24.98 21.01,27.09 55.77,6.76 103.01,-10.31 142.39,-50.92 34.51,-35.35 45.9,-80.94 57.97,-126.25 10.29,-38.33 12.73,-78.02 14.54,-117.77 0.64,-11.98 6.67,-21.01 18.35,-25.26 20.15,-7.36 39.42,7.05 37.99,29.43 -1.87,31.89 -4.87,63.74 -7.44,96.98 7.56,-1.43 16.32,-1.65 23.68,-5 26.32,-11.61 52.57,-23.52 77.99,-37.02 28.96,-15.26 58.74,-21.85 91.14,-16.17 22.16,3.79 42,13.9 61.34,24.52 27.13,14.8 53.87,30.13 80.06,46.43 59.51,37.02 118.78,74.6 178.01,112.24 47.09,29.89 91.74,62.97 133.01,100.68 37.7,34.38 76.01,68.08 113.06,103.03 31.03,29.38 67.24,42.11 109.53,41.98 52.51,-0.22 99.18,-18.3 143.65,-43.78 1.83,-0.99 2.62,-5.93 2,-8.35 -14.45,-55.3 -29.27,-110.41 -43.89,-165.56 -18.7,-70.57 -37.29,-141.35 -55.99,-211.93 -15.55,-58.5 -31.54,-116.93 -47.27,-175.36 -6.92,-25.79 -13.96,-51.67 -21.15,-78.32zm-1585.79 1003.2l0 0c-0.11,38.54 23.57,70.66 58.35,82.86 33.19,11.45 68.72,0.99 90.52,-27.84 70.5,-93.26 140.92,-186.51 211.22,-279.92 13.54,-18.06 18.48,-38.54 14.82,-61.01 -5.04,-32.18 -30.68,-59.71 -64.56,-68.67 -30.55,-7.82 -63.76,4.49 -83.72,30.75 -69.57,92.42 -139.31,184.83 -209.11,277.19 -11.28,14.87 -17.22,31.41 -17.53,46.65zm464.86 -215.93l0 0c-24.01,-0.46 -45.55,7.64 -59.78,26.01 -56.69,73.45 -112.13,147.66 -167.55,222.04 -6.72,8.79 -12.38,19.43 -14.98,30.2 -8.9,36.65 10.46,74.67 44.07,89.84 34,15.18 73.08,4.85 96.03,-25.72 11.15,-14.89 22.42,-29.82 33.72,-44.71 43.37,-57.35 86.96,-114.7 130.02,-172.54 18.32,-24.73 20.94,-52.35 7.86,-80.11 -13.54,-28.92 -37.49,-43.56 -69.4,-45zm-376.61 -50.02l0 0c0,-12.2 -4.41,-27.46 -13.28,-41.8 -9.69,-15.7 -24.4,-25.72 -38.96,-35.81 -29.76,-20.48 -68.89,-20.11 -96.91,2.43 -11.78,9.56 -21.23,22.24 -30.62,34.44 -29.43,38.02 -58.04,76.56 -87.37,114.57 -23.06,29.91 -26.32,66.01 -8.08,98.04 11.08,19.12 28.72,31.34 47.05,42.11 35.22,20.26 81.6,11.23 106.36,-21.02 35.66,-46.52 70.68,-93.47 105.76,-140.23 10.66,-14.25 15.81,-30.42 16.06,-52.73zm623.33 267.94l0 0c-0.6,-35.66 -23.63,-66.25 -58.61,-77.86 -32.02,-10.84 -66.36,0.09 -87.88,28.3 -35.61,46.83 -71.14,93.78 -106.43,140.98 -28.59,38.24 -20.88,85.22 18.3,114.51 36.45,27.16 84.11,19.87 112.04,-17.07 35.46,-46.98 71.01,-93.96 106.4,-140.92 10.66,-14.12 16.17,-30.2 16.17,-47.95zm-7.18 130.81l0 0c2.78,1.45 5.28,2.89 7.86,4.19 23.41,11.83 46.85,23.43 70.22,35.28 44.93,22.6 91.89,33.3 142.17,23.96 19.23,-3.57 38.08,-8.5 54.44,-20.18 13.83,-9.8 12.46,-34.38 -2.4,-42.26 -58.5,-30.97 -117.06,-61.76 -175.47,-92.51 -11.19,-5.9 -22.49,-11.83 -34.93,-18.35 -5.35,45.97 -38.54,74.67 -61.89,109.86z"/>
 </g>
</svg>
