<?xml version="1.0" encoding="utf-8"?>
<!-- Generator: Adobe Illustrator 27.5.0, SVG Export Plug-In . SVG Version: 6.00 Build 0)  -->
<svg version="1.1" xmlns="http://www.w3.org/2000/svg" xmlns:xlink="http://www.w3.org/1999/xlink" x="0px" y="0px"
	 viewBox="0 0 750 500" style="enable-background:new 0 0 750 500;" xml:space="preserve">
<g id="BACKGROUND">
	<rect id="XMLID_11_" style="display:none;fill:#DEDFE1;" width="750" height="500"/>
	<rect id="XMLID_5_" y="0" style="fill:#FFFFFF;" width="750" height="500"/>
</g>
<g id="OBJECTS">
	<g id="XMLID_3_">
		<path id="XMLID_359_" style="fill:#F2F1EF;" d="M554.637,161.15c-139.279,1.705-162.768-51.263-249.683-56.288
			C154.214,96.149,49.317,224.892,86.847,367.32c37.53,142.429,186.786,72.113,186.786,72.113
			c107.715-43.104,116.867-18.465,264.183-63.932C685.133,330.035,693.916,159.445,554.637,161.15z"/>
		<g id="XMLID_315_">
			<g id="XMLID_463_">
				<path id="XMLID_479_" style="fill:#1E44C1;" d="M104.698,293.137h45.567c1.101,0,1.993,0.892,1.993,1.993
					c0,1.101-0.892,1.993-1.993,1.993h-45.567c-1.101,0-1.993-0.892-1.993-1.993C102.704,294.03,103.597,293.137,104.698,293.137z"
					/>
				<path id="XMLID_478_" style="fill:#1E44C1;" d="M164.766,293.13h8.904c1.101,0,1.993,0.892,1.993,1.993
					c0,1.101-0.892,1.993-1.993,1.993h-8.904c-1.101,0-1.993-0.892-1.993-1.993C162.773,294.022,163.666,293.13,164.766,293.13z"/>
				<path id="XMLID_471_" style="fill:#1E44C1;" d="M128.1,307.021h5.7c1.101,0,1.993,0.892,1.993,1.993
					c0,1.101-0.892,1.994-1.993,1.994h-5.7c-1.101,0-1.993-0.893-1.993-1.994C126.107,307.913,126.999,307.021,128.1,307.021z
					 M143.766,307.021h9.967c1.1,0,1.993,0.892,1.993,1.993c0,1.101-0.893,1.994-1.993,1.994h-9.967
					c-1.101,0-1.993-0.893-1.993-1.994C141.773,307.913,142.665,307.021,143.766,307.021z M163.7,307.021h9.967
					c1.101,0,1.993,0.892,1.993,1.993c0,1.101-0.893,1.994-1.993,1.994H163.7c-1.101,0-1.993-0.893-1.993-1.994
					C161.707,307.913,162.599,307.021,163.7,307.021z"/>
			</g>
		</g>
		<path id="XMLID_257_" style="fill:#F2F1EF;" d="M469.027,76.254c0,0-94.848-12.706-83.733,25.681
			c11.114,38.388,166.485,68.387,167.096,31.657C553.001,96.863,469.027,76.254,469.027,76.254z"/>
		<g id="XMLID_267_">
			<g id="XMLID_544_">
				<path id="XMLID_234_" style="fill:#1E44C1;" d="M447.255,382.932h4.793l4.617-2.729c-2.004-15.555,8.617-29.904,20.311-40.356
					c11.693-10.452,25.394-19.395,33.137-33.035c3.226-5.683,4.45-14.412-1.332-17.457c-2.025-1.067-4.446-1.079-6.709-0.74
					c-13.98,2.092-13.563,11.141-27.697,10.969c-4.894-0.06-10.554-3.068-10.548-7.962c0.002-1.844,0.828-3.579,1.69-5.21
					c11.294-21.346,20.195-31.483,36.525-49.274c9.208-10.033,17.825-23.099,14.648-36.341c-0.338-1.41-0.852-2.857-1.942-3.813
					c-2.279-1.997-5.843-0.984-8.503,0.467c-12.924,7.046-8.854,7.16-19.33,17.501c-2.688,2.653-6.758,5.202-9.969,3.212
					c-2.039-1.263-2.75-3.884-2.925-6.275c-1.131-15.468,23.907-40.375,2.49-41.242c-5.603-0.227-9.008,9.127-14.307,7.292
					c-4.475-1.55-2.866-8.219-0.555-12.352c3.383-6.048,6.384-13.923,2.233-19.472c-3.647-4.876-11.37-4.988-16.521-1.742
					c-5.151,3.247-8.242,8.891-10.718,14.454c-3.998,8.98-6.993,18.451-8.298,28.194c-1.6,11.951-1.288,25.666-10.148,33.844
					c-5.289,4.881-12.828,6.556-20.024,6.685c-3.683,0.066-7.779-0.082-10.539,2.358c-2.024,1.79-2.819,4.59-3.153,7.271
					c-1.258,10.067,2.974,20.652,10.825,27.079c5.404,4.422,12.278,6.923,17.202,11.874c4.924,4.951,6.901,14.178,1.374,18.445
					c-3.977,3.071-9.587,2.029-14.611,2.039c-9.247,0.019-18.558,4.547-23.615,12.289c-5.057,7.742-5.314,18.571,0.022,26.123
					c9.549,13.515,29.785,11.664,45.209,17.659C433.849,357.725,443.972,369.435,447.255,382.932z"/>
			</g>
			<g id="XMLID_472_">
				<g id="XMLID_480_">
					<path id="XMLID_532_" style="fill:#0B2584;" d="M453.059,382.932c-29.187-112.222,0.867-233.028,1.174-234.236
						c0.168-0.659-0.231-1.329-0.889-1.497c-0.66-0.168-1.33,0.231-1.497,0.89c-0.308,1.212-30.408,122.17-1.327,234.844H453.059z"
						/>
				</g>
			</g>
			<g id="XMLID_468_">
				<g id="XMLID_469_">
					<path id="XMLID_470_" style="fill:#0B2584;" d="M441.5,256.572c0.465-0.157,0.81-0.586,0.836-1.106
						c1.632-32.57,33.202-75.004,33.52-75.428c0.409-0.544,0.298-1.316-0.246-1.725c-0.544-0.408-1.316-0.296-1.724,0.246
						c-1.32,1.759-32.342,43.457-34.012,76.784c-0.033,0.68,0.49,1.258,1.169,1.292C441.204,256.642,441.358,256.62,441.5,256.572z"
						/>
				</g>
			</g>
			<g id="XMLID_466_">
				<path id="XMLID_467_" style="fill:#0B2584;" d="M439.421,285.507c0.047-0.013,0.097-0.029,0.144-0.049
					c0.629-0.259,0.928-0.979,0.669-1.608c-11.502-27.885-45.985-44.753-47.448-45.458c-0.615-0.297-1.349-0.036-1.643,0.575
					c-0.295,0.613-0.038,1.349,0.574,1.645c0.35,0.168,35.1,17.173,46.24,44.177C438.197,285.37,438.83,285.669,439.421,285.507z"/>
			</g>
			<g id="XMLID_459_">
				<g id="XMLID_460_">
					<path id="XMLID_464_" style="fill:#0B2584;" d="M439.854,297.426c0.397-0.134,0.715-0.466,0.81-0.904
						c5.745-26.309,66.155-83.592,66.764-84.167c0.495-0.467,0.517-1.247,0.049-1.741c-0.465-0.495-1.243-0.518-1.741-0.05
						c-2.511,2.372-61.572,58.384-67.479,85.433c-0.145,0.665,0.276,1.321,0.941,1.466
						C439.425,297.512,439.65,297.495,439.854,297.426z"/>
				</g>
			</g>
			<g id="XMLID_292_">
				<g id="XMLID_457_">
					<path id="XMLID_458_" style="fill:#0B2584;" d="M445.259,351.153c0.018-0.006,0.037-0.012,0.055-0.02
						c0.634-0.247,0.946-0.962,0.699-1.596c-11.982-30.687-62.127-28.775-64.256-28.678c-0.681,0.033-1.205,0.608-1.174,1.285
						c0.031,0.68,0.606,1.206,1.286,1.176c0.504-0.023,50.511-1.929,61.85,27.114C443.96,351.048,444.641,351.362,445.259,351.153z"
						/>
				</g>
			</g>
			<g id="XMLID_289_">
				<g id="XMLID_290_">
					<path id="XMLID_291_" style="fill:#0B2584;" d="M447.34,362.738c0.467-0.158,0.813-0.589,0.837-1.113
						c1.288-29.126,52.735-59.817,53.255-60.123c0.586-0.345,0.78-1.1,0.435-1.687c-0.345-0.585-1.103-0.781-1.687-0.434
						c-2.168,1.279-53.117,31.678-54.464,62.136c-0.03,0.679,0.497,1.254,1.177,1.285C447.048,362.809,447.2,362.785,447.34,362.738
						z"/>
				</g>
			</g>
		</g>
		<g id="XMLID_1318_">
			<path id="XMLID_1466_" style="fill:#FFBC49;" d="M218.042,174.318c0,0,0.411,0.575,1.115,1.693
				c0.708,1.116,1.67,2.799,2.856,4.954c1.177,2.161,2.496,4.844,3.897,7.964c1.39,3.127,2.792,6.723,4.254,10.66
				c1.4,3.963,2.783,8.299,4.017,12.947c1.201,4.656,2.338,9.596,3.259,14.753c0.994,5.144,1.643,10.522,2.271,15.98
				c0.514,5.473,0.925,11.044,1.02,16.628c0.075,2.791,0.144,5.581,0.075,8.363c-0.015,1.39-0.03,2.778-0.045,4.161
				c-0.06,1.383-0.12,2.761-0.179,4.135c-0.062,1.373-0.124,2.74-0.185,4.101c-0.104,1.359-0.207,2.71-0.309,4.054
				c-0.188,2.688-0.369,5.344-0.684,7.945c-0.308,2.601-0.488,5.173-0.886,7.665c-0.361,2.496-0.698,4.941-0.997,7.325
				c-0.808,4.737-1.432,9.245-2.32,13.35c-0.4,2.062-0.784,4.038-1.149,5.917c-0.411,1.871-0.801,3.645-1.167,5.313
				c-0.729,3.338-1.378,6.246-2.023,8.615c-0.61,2.378-1.089,4.247-1.415,5.521c-0.152,0.641-0.314,1.119-0.348,1.463
				c0.075,0.199,0.511,0.462,0.839,0.65c0.455,0.225,0.686,0.34,0.686,0.34s0.255,0.03,0.757,0.088
				c0.375,0.021,0.881,0.034,1.048-0.095c0.15-0.314,0.261-0.812,0.465-1.445c0.385-1.272,0.95-3.139,1.669-5.514
				c0.754-2.367,1.538-5.278,2.42-8.624c0.443-1.673,0.915-3.453,1.412-5.33c0.428-1.895,0.878-3.887,1.347-5.966
				c0.989-4.148,1.723-8.714,2.646-13.515c0.755-4.832,1.469-9.942,1.973-15.258c0.316-2.651,0.498-5.36,0.686-8.102
				c0.086-1.371,0.173-2.751,0.26-4.137c0.041-1.389,0.081-2.785,0.122-4.187c0.038-1.401,0.076-2.808,0.114-4.22
				c-0.007-1.412-0.015-2.829-0.022-4.248c0.022-2.838-0.089-5.686-0.217-8.533c-0.243-5.694-0.806-11.371-1.473-16.94
				c-0.761-5.559-1.69-11.005-2.877-16.213c-1.098-5.227-2.562-10.187-4.03-14.848c-1.506-4.654-3.146-8.977-4.779-12.913
				c-3.308-7.864-6.871-14.031-9.534-18.204C219.919,176.443,218.042,174.318,218.042,174.318z"/>
			<path id="XMLID_1468_" style="fill:#FFBC49;" d="M231.428,202.771c0,0,2.907-3.646-1.211-16.043
				c-4.118-12.397-3.202-29.977,3.843-26.69C241.106,163.326,238.192,194.886,231.428,202.771z"/>
			<path id="XMLID_1477_" style="fill:#FFBC49;" d="M239.199,229.398c0,0,3.29-9.572,4.831-23.075
				c1.642-14.393,1.5-21.571,7.428-16.102C257.385,195.689,247.016,223.486,239.199,229.398z"/>
			<path id="XMLID_1467_" style="fill:#FFBC49;" d="M225.66,188.07c0,0-10.882-28-24.763-25.869
				C187.016,164.333,222.758,181.605,225.66,188.07z"/>
			<path id="XMLID_1469_" style="fill:#FFBC49;" d="M235.308,209.245c0,0-22.328-33.09-33.664-25.416
				C190.309,191.503,233.972,203.956,235.308,209.245z"/>
			<path id="XMLID_1470_" style="fill:#FFBC49;" d="M241.373,227.327c0,0-25.088-27.087-32.315-17.421
				C201.015,220.664,238.607,220.102,241.373,227.327z"/>
			<path id="XMLID_1472_" style="fill:#FFBC49;" d="M243.093,258.24c0,0,10.042-36.465,15.095-41.159
				C263.241,212.386,265.226,230.038,243.093,258.24z"/>
			<path id="XMLID_1329_" style="fill:#FFBC49;" d="M241.588,241.476c0,0-20.823-21.581-26.646-21.031
				C209.119,220.994,213.479,237.501,241.588,241.476z"/>
			<path id="XMLID_1320_" style="fill:#FFBC49;" d="M242.348,301.848c0,0-16.7-26.683-22.331-27.469
				C214.387,273.592,216.133,291.332,242.348,301.848z"/>
			<path id="XMLID_1321_" style="fill:#FFBC49;" d="M236.14,327.414c0,0-6.48-28.027-12.121-28.263
				C218.378,298.916,212.764,318.623,236.14,327.414z"/>
			<path id="XMLID_1327_" style="fill:#FFBC49;" d="M235.03,335.045c0,0,21.966-40.91,29.385-43.756
				C271.834,288.443,269.561,312.654,235.03,335.045z"/>
			<path id="XMLID_1481_" style="fill:#FFBC49;" d="M241.925,292.86c0,0,14.077-40.939,21.499-43.845
				C270.846,246.109,274.244,270.231,241.925,292.86z"/>
			<path id="XMLID_1479_" style="fill:#FFBC49;" d="M241.836,274.211c0,0-10.872-29.609-22.147-23.031
				C209.616,257.057,241.836,274.211,241.836,274.211z"/>
		</g>
		<g id="XMLID_262_">
			<g id="XMLID_282_">
				<path id="XMLID_201_" style="fill:#FDA939;" d="M443.271,371.008c-7.339-8.092-8.419-21.195-2.505-30.379
					c5.532-8.591,16.622-14.782,16.488-24.999c-0.043-3.3-1.352-6.454-1.722-9.733c-1.003-8.894,4.936-17.068,11.489-23.165
					c6.552-6.096,14.216-11.39,18.537-19.228c7.122-12.919,3.314-28.781,3.405-43.533c0.048-7.847,3.37-17.74,11.212-18.036
					c6.581-0.249,11.062,6.925,11.917,13.455c0.855,6.53-0.379,13.367,1.703,19.615c3.32,9.968,13.963,15.554,19.375,24.56
					c5.945,9.891,4.325,23.711-3.747,31.959c-4.816,4.921-11.333,7.75-16.87,11.843c-5.537,4.093-10.399,10.47-9.322,17.27
					c1.217,7.685,9.437,12.721,10.935,20.356c1.098,5.595-1.723,11.245-5.29,15.693
					C498.722,369.353,461.059,390.282,443.271,371.008"/>
			</g>
			<path id="XMLID_264_" style="fill:#FFBC49;" d="M501.465,220.576c0,0-0.032,0.168-0.094,0.493
				c-0.054,0.327-0.176,0.804-0.243,1.443c-0.187,1.269-0.329,3.154-0.221,5.549c0.108,2.394,0.447,5.29,1.008,8.577
				c0.542,3.291,1.282,6.98,1.899,11.03c0.604,4.046,1.084,8.474,0.887,13.146c-0.183,4.664-1.139,9.566-3.155,14.23
				c-1.912,4.723-5.637,8.574-9.771,11.928c-4.12,3.393-8.771,6.437-12.415,10.76c-1.787,2.163-3.277,4.669-4.042,7.42
				c-0.8,2.736-0.968,5.609-0.706,8.371c0.244,2.76,0.946,5.462,1.676,7.986c0.722,2.458,1.068,4.961,1.051,7.411
				c-0.046,4.926-1.825,9.485-4.204,13.374c-2.368,3.921-5.202,7.316-7.698,10.605c-2.509,3.276-4.731,6.49-6.104,9.761
				c-1.401,3.255-1.809,6.515-1.566,9.108c0.226,2.608,0.909,4.546,1.408,5.813c0.252,0.637,0.468,1.113,0.622,1.429
				c0.149,0.319,0.226,0.483,0.226,0.483l2.794-1.411c0,0-0.07-0.144-0.207-0.423c-0.142-0.277-0.339-0.693-0.569-1.244
				c-0.458-1.098-1.067-2.75-1.294-4.92c-0.235-2.162,0.027-4.845,1.207-7.755c1.157-2.917,3.174-5.994,5.589-9.264
				c2.396-3.287,5.225-6.789,7.651-10.969c2.432-4.133,4.319-9.185,4.265-14.58c-0.028-2.676-0.461-5.384-1.274-7.976
				c-0.784-2.526-1.481-5.004-1.77-7.612c-0.299-2.585-0.193-5.227,0.485-7.741c0.645-2.528,1.958-4.856,3.602-6.936
				c3.349-4.162,7.894-7.306,11.999-10.82c2.06-1.758,4.032-3.625,5.736-5.696c1.715-2.047,3.099-4.393,4.055-6.79
				c1.989-4.791,2.886-9.799,3.001-14.522c0.13-4.733-0.42-9.181-1.085-13.231c-0.679-4.053-1.472-7.73-2.062-11.008
				c-0.609-3.275-0.989-6.156-1.131-8.542c-0.143-2.386-0.029-4.271,0.139-5.539c0.057-0.639,0.173-1.119,0.221-1.446
				C501.436,220.744,501.465,220.576,501.465,220.576z"/>
		</g>
		<g id="XMLID_270_">
			<path id="XMLID_456_" style="fill:#FFBC49;" d="M488.377,200.659c0,0-0.411,0.575-1.115,1.693
				c-0.708,1.116-1.67,2.799-2.856,4.954c-1.177,2.161-2.496,4.844-3.897,7.964c-1.39,3.127-2.792,6.722-4.254,10.66
				c-1.4,3.963-2.783,8.299-4.017,12.947c-1.201,4.656-2.338,9.596-3.259,14.753c-0.993,5.144-1.643,10.522-2.271,15.98
				c-0.514,5.473-0.925,11.044-1.021,16.628c-0.075,2.791-0.144,5.581-0.075,8.363c0.015,1.39,0.03,2.778,0.044,4.161
				c0.06,1.383,0.12,2.761,0.179,4.134c0.062,1.373,0.124,2.74,0.185,4.101c0.104,1.358,0.207,2.71,0.309,4.054
				c0.188,2.688,0.369,5.344,0.684,7.946c0.308,2.601,0.488,5.173,0.886,7.665c0.361,2.496,0.698,4.94,0.997,7.325
				c0.808,4.737,1.432,9.245,2.32,13.35c0.4,2.062,0.784,4.038,1.149,5.917c0.411,1.871,0.8,3.645,1.167,5.313
				c0.729,3.338,1.378,6.246,2.023,8.615c0.61,2.378,1.089,4.247,1.415,5.521c0.152,0.641,0.314,1.119,0.348,1.463
				c-0.075,0.199-0.511,0.462-0.839,0.65c-0.455,0.225-0.686,0.34-0.686,0.34s-0.255,0.03-0.757,0.088
				c-0.375,0.021-0.88,0.035-1.047-0.095c-0.15-0.314-0.261-0.812-0.465-1.445c-0.385-1.272-0.95-3.139-1.669-5.514
				c-0.754-2.367-1.537-5.278-2.42-8.624c-0.443-1.673-0.915-3.454-1.412-5.33c-0.428-1.895-0.878-3.887-1.347-5.965
				c-0.989-4.148-1.723-8.714-2.647-13.515c-0.755-4.832-1.469-9.942-1.973-15.258c-0.316-2.651-0.498-5.36-0.686-8.102
				c-0.086-1.371-0.173-2.751-0.259-4.137c-0.041-1.389-0.082-2.785-0.123-4.187c-0.038-1.401-0.076-2.809-0.114-4.22
				c0.007-1.412,0.015-2.829,0.022-4.248c-0.022-2.838,0.089-5.686,0.217-8.533c0.243-5.694,0.806-11.371,1.473-16.94
				c0.761-5.559,1.69-11.005,2.877-16.213c1.098-5.227,2.562-10.187,4.03-14.848c1.506-4.654,3.146-8.977,4.779-12.913
				c3.308-7.864,6.871-14.031,9.534-18.204C486.5,202.785,488.377,200.659,488.377,200.659z"/>
			<path id="XMLID_455_" style="fill:#FFBC49;" d="M474.991,229.113c0,0-2.908-3.646,1.21-16.043
				c4.118-12.397,3.202-29.977-3.843-26.69C465.313,189.667,468.227,221.228,474.991,229.113z"/>
			<path id="XMLID_454_" style="fill:#FFBC49;" d="M467.219,255.74c0,0-3.29-9.572-4.831-23.075
				c-1.642-14.393-1.5-21.571-7.428-16.102C449.033,222.031,459.402,249.828,467.219,255.74z"/>
			<path id="XMLID_451_" style="fill:#FFBC49;" d="M480.759,214.412c0,0,10.882-28,24.763-25.869
				C519.402,190.675,483.66,207.947,480.759,214.412z"/>
			<path id="XMLID_412_" style="fill:#FFBC49;" d="M471.11,235.587c0,0,22.328-33.09,33.663-25.416
				C516.109,217.845,472.447,230.298,471.11,235.587z"/>
			<path id="XMLID_399_" style="fill:#FFBC49;" d="M465.045,253.669c0,0,25.088-27.087,32.315-17.421
				C505.404,247.006,467.812,246.444,465.045,253.669z"/>
			<path id="XMLID_335_" style="fill:#FFBC49;" d="M463.325,284.581c0,0-10.042-36.465-15.095-41.159
				C443.178,238.728,441.193,256.38,463.325,284.581z"/>
			<path id="XMLID_331_" style="fill:#FFBC49;" d="M464.831,267.818c0,0,20.823-21.581,26.646-21.032
				C497.3,247.336,492.94,263.843,464.831,267.818z"/>
			<path id="XMLID_330_" style="fill:#FFBC49;" d="M464.071,328.19c0,0,16.7-26.683,22.331-27.469
				C492.032,299.935,490.285,317.673,464.071,328.19z"/>
			<path id="XMLID_318_" style="fill:#FFBC49;" d="M470.279,353.756c0,0,6.48-28.027,12.121-28.263
				C488.041,325.258,493.655,344.965,470.279,353.756z"/>
			<path id="XMLID_300_" style="fill:#FFBC49;" d="M471.388,361.387c0,0-21.966-40.91-29.385-43.756
				C434.584,314.785,436.858,338.996,471.388,361.387z"/>
			<path id="XMLID_298_" style="fill:#FFBC49;" d="M464.493,319.202c0,0-14.077-40.939-21.499-43.845
				C435.572,272.451,432.174,296.573,464.493,319.202z"/>
			<path id="XMLID_278_" style="fill:#FFBC49;" d="M464.583,300.553c0,0,10.872-29.609,22.147-23.031
				C496.803,283.399,464.583,300.553,464.583,300.553z"/>
		</g>
		<g id="XMLID_1448_">
			<g id="XMLID_305_">
				<path id="XMLID_172_" style="fill:#1E44C1;" d="M223.793,379.207c-2.2-15.529-16.25-26.542-30.299-33.513
					c-14.049-6.971-29.633-11.954-40.72-23.047c-4.619-4.622-8.118-12.712-3.352-17.184c1.669-1.566,4-2.221,6.272-2.495
					c14.034-1.696,16.034,7.139,29.616,3.219c4.703-1.357,9.36-5.761,8.055-10.478c-0.492-1.778-1.749-3.231-3.013-4.574
					c-16.558-17.579-27.832-24.988-48.3-37.803c-11.542-7.227-23.32-17.535-23.774-31.146c-0.048-1.449,0.063-2.981,0.86-4.192
					c1.666-2.531,5.372-2.5,8.322-1.809c14.331,3.361,10.438,4.552,23.284,11.738c3.297,1.844,7.897,3.22,10.464,0.449
					c1.63-1.759,1.62-4.474,1.153-6.827c-3.018-15.212-33.772-32.575-13.354-39.099c5.341-1.707,11.109,6.407,15.73,3.23
					c3.903-2.683,0.58-8.685-2.746-12.056c-4.868-4.932-9.853-11.727-7.325-18.18c2.221-5.669,9.637-7.829,15.466-6.067
					c5.829,1.762,10.307,6.383,14.172,11.088c6.239,7.596,11.643,15.931,15.488,24.977c4.717,11.097,8.059,24.402,18.773,29.933
					c6.395,3.301,14.109,2.913,21.081,1.127c3.569-0.915,7.478-2.146,10.787-0.526c2.426,1.188,3.936,3.677,4.971,6.172
					c3.886,9.372,2.618,20.7-3.244,28.981c-4.035,5.699-9.998,9.935-13.43,16.016c-3.432,6.081-2.887,15.501,3.575,18.148
					c4.65,1.904,9.781-0.591,14.628-1.915c8.92-2.438,19.099-0.545,26.031,5.576c6.932,6.121,10.056,16.492,6.917,25.191
					c-5.617,15.566-25.617,19.156-38.895,29.032c-11.851,8.815-18.622,24.028-17.238,38.733"/>
			</g>
			<g id="XMLID_294_">
				<g id="XMLID_245_">
					<path id="XMLID_730_" style="fill:#0B2584;" d="M229.162,382.443c-0.64-0.036-1.152-0.562-1.16-1.213
						c-1.549-116.075-62.734-224.778-63.351-225.862c-0.337-0.591-0.131-1.343,0.459-1.68c0.591-0.337,1.343-0.131,1.68,0.461
						c0.621,1.09,62.118,110.323,63.674,227.048c0.01,0.68-0.534,1.239-1.214,1.248C229.219,382.445,229.19,382.445,229.162,382.443
						z"/>
				</g>
			</g>
			<g id="XMLID_1449_">
				<g id="XMLID_239_">
					<path id="XMLID_727_" style="fill:#0B2584;" d="M205.577,255.989c-0.49-0.028-0.937-0.35-1.1-0.844
						c-10.223-30.967-51.93-63.492-52.35-63.816c-0.539-0.416-0.637-1.19-0.221-1.728c0.416-0.538,1.19-0.635,1.727-0.221
						c1.74,1.345,42.722,33.306,53.184,64.993c0.213,0.646-0.138,1.343-0.784,1.556
						C205.881,255.978,205.727,255.997,205.577,255.989z"/>
				</g>
			</g>
			<g id="XMLID_1451_">
				<path id="XMLID_250_" style="fill:#0B2584;" d="M215.266,283.332c-0.049,0-0.101-0.002-0.152-0.01
					c-0.675-0.083-1.155-0.698-1.072-1.372c3.683-29.939,32.447-55.359,33.67-56.427c0.514-0.449,1.291-0.393,1.737,0.118
					c0.447,0.512,0.395,1.29-0.117,1.738c-0.292,0.255-29.279,25.879-32.846,54.871C216.41,282.875,215.88,283.332,215.266,283.332z
					"/>
			</g>
			<g id="XMLID_1452_">
				<g id="XMLID_232_">
					<path id="XMLID_722_" style="fill:#0B2584;" d="M218.014,294.939c-0.418-0.024-0.813-0.259-1.021-0.657
						c-12.527-23.838-85.98-63.019-86.721-63.412c-0.601-0.319-0.83-1.065-0.51-1.666c0.317-0.601,1.06-0.83,1.665-0.511
						c3.051,1.619,74.867,39.934,87.746,64.443c0.316,0.602,0.085,1.347-0.518,1.663
						C218.451,294.907,218.229,294.951,218.014,294.939z"/>
				</g>
			</g>
			<g id="XMLID_1453_">
				<g id="XMLID_220_">
					<path id="XMLID_719_" style="fill:#0B2584;" d="M227.073,348.171c-0.019-0.001-0.038-0.002-0.059-0.005
						c-0.677-0.07-1.167-0.676-1.098-1.353c3.401-32.767,52.253-44.242,54.332-44.714c0.665-0.149,1.323,0.266,1.474,0.927
						c0.15,0.664-0.264,1.323-0.927,1.475c-0.492,0.112-49.209,11.556-52.428,42.568
						C228.298,347.725,227.725,348.208,227.073,348.171z"/>
				</g>
			</g>
			<g id="XMLID_1455_">
				<g id="XMLID_218_">
					<path id="XMLID_716_" style="fill:#0B2584;" d="M228.144,359.892c-0.492-0.028-0.94-0.352-1.102-0.851
						c-8.977-27.738-66.728-43.662-67.31-43.82c-0.656-0.177-1.044-0.853-0.867-1.511c0.177-0.656,0.856-1.046,1.511-0.867
						c2.43,0.658,59.623,16.433,69.011,45.439c0.209,0.647-0.146,1.341-0.793,1.551
						C228.445,359.883,228.292,359.901,228.144,359.892z"/>
				</g>
			</g>
		</g>
		<path id="XMLID_238_" style="fill:#6673FF;" d="M345.044,231.245c0,0-2.385-10.564-1.12-10.687
			c1.266-0.123,3.447,4.422,3.447,4.422s-0.436-13.635,1.454-13.881c1.89-0.246,7.852,3.317,7.852,10.073
			c0,6.756-1.163,13.512-1.163,13.512L345.044,231.245z"/>
		<g id="XMLID_152_">
			<g id="XMLID_263_">
				<path id="XMLID_167_" style="fill:#FDA939;" d="M243.202,366.708c3.832-9.113,0.816-20.623-6.994-26.685
					c-7.304-5.67-18.631-7.621-21.589-16.382c-0.955-2.83-0.786-5.915-1.456-8.826c-1.817-7.893-9.344-13.085-16.77-16.32
					c-7.426-3.234-15.558-5.449-21.602-10.84c-9.963-8.886-11.48-23.571-15.992-36.136c-2.4-6.684-8.209-14.13-14.992-12.025
					c-5.692,1.766-7.361,9.237-6.127,15.067c1.233,5.831,4.341,11.296,4.443,17.255c0.162,9.507-7.243,17.474-9.156,26.788
					c-2.102,10.23,3.436,21.539,12.805,26.153c5.59,2.753,12.003,3.209,17.96,5.038c5.956,1.829,12.023,5.811,13.148,11.94
					c1.271,6.926-4.231,13.695-3.215,20.662c0.745,5.106,4.851,9.08,9.233,11.806C195.372,381.963,233.812,388.506,243.202,366.708"
					/>
			</g>
			<path id="XMLID_256_" style="fill:#FFBC49;" d="M148.308,255.794c0,0,0.078,0.134,0.229,0.393
				c0.144,0.263,0.392,0.633,0.641,1.159c0.541,1.026,1.229,2.593,1.856,4.67c0.628,2.076,1.209,4.649,1.718,7.624
				c0.526,2.972,1.004,6.343,1.694,9.986c0.701,3.635,1.622,7.559,3.195,11.488c1.558,3.926,3.848,7.823,6.971,11.198
				c3.052,3.457,7.389,5.624,11.926,7.244c4.537,1.657,9.422,2.858,13.831,5.453c2.176,1.309,4.2,3,5.68,5.119
				c1.505,2.095,2.513,4.497,3.119,6.933c0.622,2.429,0.835,4.947,0.97,7.321c0.122,2.315,0.579,4.555,1.331,6.642
				c1.52,4.191,4.409,7.548,7.608,10.153c3.2,2.635,6.639,4.681,9.759,6.738c3.126,2.043,5.99,4.118,8.145,6.497
				c2.174,2.357,3.502,5.018,4.075,7.304c0.591,2.294,0.591,4.154,0.545,5.385c-0.023,0.62-0.065,1.091-0.101,1.407
				c-0.031,0.317-0.048,0.48-0.048,0.48l-2.809-0.365c0,0,0.017-0.144,0.049-0.423c0.038-0.279,0.081-0.693,0.112-1.233
				c0.061-1.075,0.084-2.668-0.374-4.588c-0.449-1.916-1.48-4.128-3.362-6.256c-1.865-2.142-4.511-4.163-7.556-6.228
				c-3.034-2.085-6.501-4.224-9.828-7.064c-3.318-2.797-6.448-6.541-8.023-11.164c-0.781-2.293-1.225-4.735-1.31-7.191
				c-0.09-2.392-0.24-4.717-0.778-7.029c-0.522-2.297-1.406-4.52-2.741-6.462c-1.31-1.964-3.131-3.556-5.16-4.837
				c-4.109-2.546-8.934-3.863-13.495-5.629c-2.287-0.882-4.531-1.882-6.608-3.138c-2.079-1.232-3.965-2.819-5.502-4.577
				c-3.138-3.492-5.409-7.497-6.927-11.493c-1.534-4.001-2.401-7.963-3.051-11.62c-0.639-3.663-1.067-7.04-1.549-10.016
				c-0.465-2.978-1.007-5.552-1.602-7.632c-0.595-2.08-1.259-3.654-1.784-4.687c-0.241-0.528-0.484-0.903-0.624-1.167
				C148.384,255.928,148.308,255.794,148.308,255.794z"/>
		</g>
		<g id="XMLID_230_">
			<path id="XMLID_233_" style="fill:#1730A3;" d="M285.714,242.022c-3.456-1.926-11.194-10.924-24.878-0.461
				c-4.166,3.185-8.352,7.463-7.771,12.523c-0.113,0.592-0.199,1.191-0.232,1.796c-0.156,2.931,0.565,5.878,0.19,8.789
				c-0.794,6.154-6.123,10.567-9.281,15.908c-5.422,9.17-3.982,21.517,2.39,30.054c6.372,8.537,16.993,13.349,27.628,13.95
				c5.941,0.336,12.125-0.607,17.146-3.801c5.021-3.194,8.661-8.912,8.316-14.852c-0.251-4.327-2.494-8.322-2.951-12.632
				c-0.631-5.961-4.412-10.62-2.846-16.406C296.605,265.139,296.349,247.948,285.714,242.022z"/>
			<g id="XMLID_205_">
				<path id="XMLID_229_" style="fill:#1730A3;" d="M286.471,240.727c-4.393-2.65-8.028-5.729-13.493-5.636
					c-7.547,0.128-16.341,6.007-19.924,12.559c-1.945,3.558-1.817,7.817-1.614,11.752c0.341,6.618-1.783,10.554-5.658,15.674
					c-5.305,7.011-7.945,14.572-6.421,23.429c3.068,17.831,21.283,28.456,38.469,27.587c8.074-0.408,16.338-3.653,20.54-10.95
					c1.949-3.384,2.701-7.158,2.144-11.021c-0.68-4.708-2.237-9.739-3.403-14.36c-0.725-2.874-2.087-5.578-2.399-8.549
					c-0.313-2.985,0.707-5.789,1.203-8.707c0.675-3.964,0.967-8.021,0.685-12.036C296.055,252.687,293.408,244.958,286.471,240.727
					c-1.653-1.008-3.162,1.586-1.514,2.59c6.003,3.661,8.144,10.468,8.644,17.151c0.488,6.518-1.732,12.387-2.014,18.728
					c-0.142,3.191,0.994,6.14,1.949,9.13c1.145,3.581,1.516,7.299,2.598,10.899c1.378,4.583,2.352,8.7,0.2,13.244
					c-2.277,4.809-6.669,7.995-11.699,9.503c-15.708,4.709-35.923-3.861-41.267-19.827c-2.775-8.291-1.44-16.774,3.687-23.806
					c3.754-5.149,7.65-9.597,7.547-16.298c-0.088-5.729-0.962-10.996,3.13-15.679c3.173-3.631,7.916-6.935,12.67-7.953
					c6.027-1.29,9.811,2.047,14.554,4.908C286.614,244.317,288.124,241.724,286.471,240.727z"/>
			</g>
		</g>
		<path id="XMLID_401_" style="fill:#FFBC49;" d="M317.484,381.29c3.461-13.869,16.13-69.3,1.882-85.416
			c-7.985-9.031-46.091-15.422-46.091-15.422l-0.787,0.218c0,0-41.591,6.172-49.576,15.204
			c-14.248,16.116,2.529,71.546,7.037,85.416H317.484z"/>
		<path id="XMLID_248_" style="fill:#FFBC49;" d="M281.564,281.128c0,0,43.513,7.484,52.763-28.403
			c5.911-22.932,5.706-22.521,5.706-22.521l19.501,1.437c0,0,13.804,83.138-43.314,98.329
			C247.462,348.256,281.564,281.128,281.564,281.128z"/>
		<path id="XMLID_23_" style="fill:#6673FF;" d="M288.804,262.156c-1.815,10.444-4.785,19.961-14.17,19.961
			c-9.386,0-16.994-10.513-16.994-19.899c0-9.385,7.608-16.994,16.994-16.994C284.019,245.224,291.302,247.779,288.804,262.156z"/>
		<path id="XMLID_20_" style="fill:#6673FF;" d="M276.242,290.257h-3.218c-2.939,0-5.322-2.383-5.322-5.322v-11.139
			c0-2.939,2.383-5.322,5.322-5.322h3.218c2.939,0,5.322,2.383,5.322,5.322v11.139C281.564,287.875,279.182,290.257,276.242,290.257
			z"/>
		<g id="XMLID_228_">
			<path id="XMLID_199_" style="fill:#1730A3;" d="M275.723,243.078c1.483,4.293,3.262,8.953,7.218,11.184
				c0.947,0.534,1.981,0.9,2.923,1.443c2.68,1.543,4.397,4.403,5.221,7.383c0.824,2.98,0.862,6.114,0.893,9.206
				c1.146-4.117,1.741-8.388,1.766-12.661c0.009-1.613-0.064-3.239-0.439-4.809c-0.707-2.957-2.44-5.549-4.141-8.069
				c-0.484-0.717-0.981-1.448-1.677-1.962c-0.656-0.484-1.446-0.745-2.222-0.997c-2.501-0.815-5.002-1.629-7.503-2.444"/>
			<g id="XMLID_191_">
				<path id="XMLID_196_" style="fill:#1730A3;" d="M274.288,243.473c1.432,4.073,3.04,8.527,6.628,11.218
					c2.592,1.944,5.503,2.52,7.327,5.476c2.21,3.581,2.19,8.066,2.247,12.126c0.023,1.654,2.496,2.051,2.923,0.396
					c1.744-6.764,3.186-14.852,0.167-21.463c-1.138-2.492-2.835-5.71-5.04-7.486c-2.708-2.181-7.157-2.774-10.381-3.824
					c-1.826-0.595-2.608,2.279-0.791,2.87c3.065,0.999,6.424,1.637,9.007,3.582c2.286,1.721,4.128,4.677,5.061,7.402
					c1.939,5.659,0.551,12.529-0.893,18.128c0.974,0.132,1.949,0.264,2.923,0.396c-0.075-5.379-0.293-11.281-4.058-15.526
					c-1.895-2.137-4.411-2.793-6.63-4.479c-3.083-2.343-4.381-6.08-5.621-9.607C276.527,240.887,273.651,241.66,274.288,243.473
					L274.288,243.473z"/>
			</g>
		</g>
		<g id="XMLID_231_">
			<path id="XMLID_190_" style="fill:#1730A3;" d="M274.633,243.078c-1.483,4.293-3.262,8.953-7.218,11.184
				c-0.947,0.534-1.981,0.9-2.923,1.443c-2.68,1.543-6.382,3.471-7.207,6.452c-0.824,2.98-5.043,5.33-5.074,8.422
				c-1.146-4.118,4.426-6.672,4.401-10.946c-0.009-1.613,0.064-3.239,0.439-4.809c0.707-2.957,2.44-5.549,4.141-8.069
				c0.484-0.717,0.981-1.448,1.677-1.962c0.656-0.484,1.446-0.745,2.221-0.997c2.501-0.815,5.002-1.629,7.503-2.444"/>
			<g id="XMLID_175_">
				<path id="XMLID_187_" style="fill:#1730A3;" d="M273.198,242.682c-1.375,3.911-2.865,7.983-6.534,10.294
					c-2.478,1.561-5.222,2.478-7.524,4.362c-2.461,2.014-3.002,4.391-4.867,6.924c-1.457,1.98-3.063,3.384-3.498,5.92
					c0.957,0,1.913,0,2.87,0c-0.395-2.765,2.424-4.912,3.528-7.119c0.859-1.718,0.798-3.157,0.953-5.046
					c0.272-3.34,1.445-6.562,3.502-9.244c2.883-3.759,7.034-4.578,11.36-5.987c1.814-0.591,1.037-3.466-0.791-2.87
					c-3.427,1.117-8.124,1.751-10.84,4.277c-2.329,2.166-4.288,5.79-5.307,8.786c-1.304,3.834-0.585,7.501-3.002,10.973
					c-1.652,2.374-2.688,4.108-2.272,7.022c0.206,1.439,2.63,1.403,2.87,0c0.491-2.864,3.151-4.898,4.621-7.332
					c2.362-3.911,4.572-5.273,8.436-7.378c5.28-2.876,7.412-7.234,9.366-12.791C276.705,241.663,273.831,240.884,273.198,242.682
					L273.198,242.682z"/>
			</g>
		</g>
		<g id="XMLID_224_">
			<path id="XMLID_235_" style="fill:#6673FF;" d="M286.481,262.156c0,0,2.506-7.065,4.951-4.243
				c2.444,2.822,0.143,9.221-3.476,9.231C284.336,267.155,286.481,262.156,286.481,262.156z"/>
			<path id="XMLID_241_" style="fill:#6673FF;" d="M260.458,262.156c0,0-2.507-7.065-4.951-4.243
				c-2.444,2.822-0.144,9.221,3.476,9.231C262.603,267.155,260.458,262.156,260.458,262.156z"/>
		</g>
		<path id="XMLID_260_" style="fill:#6673FF;" d="M269.82,333.558c0,0,5.818-8.559,6.824-7.782c1.006,0.777-0.838,4.81-0.838,4.81
			s7.691-9.937,9.237-8.821c1.546,1.116,4.678,9.944,0.051,14.867c-4.627,4.923-10.001,6.602-10.001,6.602L269.82,333.558z"/>
		<path id="XMLID_243_" style="fill:#FFBC49;" d="M223.344,295.874c0,0-40.246,50.313-8.839,73.715
			c20.999,15.646,57.719-5.386,67.059-27.097l-11.744-11.701c0,0-34.376,11.336-28.218,1.665"/>
		<path id="XMLID_339_" style="fill:none;stroke:#F49C1C;stroke-miterlimit:10;" d="M230.825,316.832c0,0-10.29,27.4,30.971,27.4"/>
		<g id="XMLID_106_">
			<path id="XMLID_415_" style="fill:#162FA2;" d="M379.871,381.29c-3.695-14.808-17.222-73.992-2.009-91.199
				c8.525-9.643,49.211-16.466,49.211-16.466l0.84,0.232c0,0,44.407,6.59,52.932,16.233c15.212,17.207-2.7,76.391-7.514,91.199
				H379.871z"/>
			<path id="XMLID_411_" style="fill:#6673FF;" d="M410.492,254.09c1.938,11.151,5.109,21.312,15.129,21.312
				c10.021,0,18.145-11.225,18.145-21.246c0-10.021-8.124-18.145-18.145-18.145C415.601,236.011,407.824,238.739,410.492,254.09z"/>
			<path id="XMLID_410_" style="fill:#6673FF;" d="M423.849,284.094h3.546c3.108,0,5.627-2.519,5.627-5.627v-12.003
				c0-3.108-2.519-5.627-5.627-5.627h-3.546c-3.108,0-5.627,2.519-5.627,5.627v12.003
				C418.222,281.574,420.741,284.094,423.849,284.094z"/>
			<path id="XMLID_356_" style="fill:#6673FF;" d="M360.91,328.424c0,0-3.135,24.049,1.063,32.811
				c11.501,24,58.028,11.063,58.028,11.063l-0.863-10.069c0,0-23.822-3.787-27.658-9.213c-3.674-5.197,0.493-10.181,1.753-21.708
				L360.91,328.424z"/>
			<path id="XMLID_413_" style="fill:#6673FF;" d="M492.176,332.143l-23.158-13.346c-5.058,10.29-4.395,16.749-10.014,19.034
				c-5.868,2.386-21.977-6.776-21.977-6.776l-3.244,8.051c0,0,28.272,32.485,44.132,21.934c5.236-3.484,11.673-14.306,15.247-21.103
				C491.385,337.903,491.057,334.636,492.176,332.143z"/>
			<path id="XMLID_227_" style="fill:#162FA2;" d="M377.861,290.091c0,0-18.076,8.021-20.05,46.048c0,0,16.674,10.648,39.271,6.662
				C418.683,338.99,377.861,290.091,377.861,290.091z"/>
			<path id="XMLID_365_" style="fill:#6673FF;" d="M419.138,362.229c0,0,4.342-4.61,5.164-3.295
				c0.822,1.315-0.438,2.959-0.438,2.959s7.781-2.76,8.658-2.037c0.877,0.722,0.822,6.202-1.973,8.503
				c-2.794,2.301-10.548,3.939-10.548,3.939L419.138,362.229z"/>
			<path id="XMLID_357_" style="fill:#162FA2;" d="M481.981,292.738c0,0,13.916,16.974,11.286,50.352
				c0,0-17.184-1.659-39.979-22.279C437.021,306.095,481.981,292.738,481.981,292.738z"/>
			<g id="XMLID_375_">
				<g id="XMLID_366_">
					<path id="XMLID_403_" style="fill:#FFBC49;" d="M426.326,335.754h-4.913c-4.306,0-7.796-3.491-7.796-7.796v-10.114
						c0-0.726,0.588-1.314,1.314-1.314h17.877c0.726,0,1.314,0.588,1.314,1.314v10.114
						C434.122,332.264,430.632,335.754,426.326,335.754z"/>
				</g>
				<g id="XMLID_394_">
					<path id="XMLID_416_" style="fill:#FFBC49;" d="M431.385,329.341v-6.726l0.493-0.285c0.582-0.338,3.588-1.966,5.453-0.871
						c0.595,0.349,1.297,1.104,1.273,2.727c-0.06,3.959-4.089,5.089-6.212,5.134L431.385,329.341z M433.357,323.777v3.452
						c1.259-0.239,3.241-0.95,3.274-3.074c0.005-0.37-0.041-0.844-0.298-0.994C435.79,322.842,434.403,323.269,433.357,323.777z"/>
				</g>
			</g>
			<path id="XMLID_398_" style="fill:#6673FF;" d="M437.408,331.466c0,0-0.411-5.962-1.218-5.234
				c-0.807,0.728-1.273,2.54-1.273,2.54l-6.843-6.085c0,0-4.871,7.041-2.734,10.822c2.136,3.781,9.284,6.531,9.284,6.531
				l3.404-6.339L437.408,331.466z"/>
			<g id="XMLID_419_">
				<path id="XMLID_372_" style="fill:#1730A3;stroke:#1730A3;stroke-width:0.25;stroke-miterlimit:10;" d="M461.664,375.779
					h-48.456c-0.773,0-1.4-0.627-1.4-1.4v-7.482c0-0.773,0.627-1.4,1.4-1.4h48.456V375.779z"/>
				<rect id="XMLID_405_" x="414.767" y="367.126" style="fill:#FFFFFF;" width="47.123" height="7.025"/>
				<g id="XMLID_407_">
					<rect id="XMLID_396_" x="416.192" y="367.934" style="fill:#DDDDDD;" width="45.699" height="0.928"/>
					<rect id="XMLID_408_" x="416.192" y="369.295" style="fill:#DDDDDD;" width="45.699" height="0.928"/>
					<rect id="XMLID_409_" x="416.192" y="370.656" style="fill:#DDDDDD;" width="45.699" height="0.928"/>
					<rect id="XMLID_417_" x="416.192" y="372.039" style="fill:#DDDDDD;" width="45.699" height="0.928"/>
				</g>
			</g>
			<g id="XMLID_437_">
				<g id="XMLID_444_">
					<g id="XMLID_369_">
						<path id="XMLID_376_" style="fill:#F7A732;" d="M447.856,365.497H399.4c-0.773,0-1.4-0.627-1.4-1.4v-7.482
							c0-0.773,0.627-1.4,1.4-1.4h48.456V365.497z"/>
						<path id="XMLID_371_" style="fill:#F49C1C;" d="M448.021,365.662h-48.18c-1.106,0-2.005-0.9-2.005-2.006v-6.598
							c0-1.106,0.899-2.006,2.005-2.006h48.18V365.662z M399.841,355.38c-0.925,0-1.676,0.753-1.676,1.677v6.598
							c0,0.925,0.751,1.677,1.676,1.677h47.851v-9.953H399.841z"/>
					</g>
				</g>
				<rect id="XMLID_443_" x="400.959" y="356.844" style="fill:#FFFFFF;" width="47.123" height="7.025"/>
				<g id="XMLID_438_">
					<rect id="XMLID_442_" x="402.384" y="357.652" style="fill:#DDDDDD;" width="45.699" height="0.928"/>
					<rect id="XMLID_441_" x="402.384" y="359.013" style="fill:#DDDDDD;" width="45.699" height="0.928"/>
					<rect id="XMLID_440_" x="402.384" y="360.374" style="fill:#DDDDDD;" width="45.699" height="0.928"/>
					<rect id="XMLID_439_" x="402.384" y="361.757" style="fill:#DDDDDD;" width="45.699" height="0.928"/>
				</g>
			</g>
			<path id="XMLID_379_" style="fill:#6673FF;" d="M414.287,254.09c0,0-2.676-7.543-5.286-4.53c-2.61,3.013-0.153,9.846,3.711,9.856
				C416.578,259.427,414.287,254.09,414.287,254.09z"/>
			<path id="XMLID_378_" style="fill:#6673FF;" d="M440.757,254.09c0,0,2.676-7.543,5.286-4.53c2.61,3.013,0.153,9.846-3.711,9.856
				C438.466,259.427,440.757,254.09,440.757,254.09z"/>
			<path id="XMLID_450_" style="fill:#162FA2;" d="M444.391,250.934c0,0-2.158-0.15-2.252,0c-0.094,0.149-3.997-9.12-8.05-8.613
				c-4.054,0.507-3.547,5.236-10.809,3.209c-7.262-2.027-10.525,4.613-13.6,4.303c-3.076-0.31-11.058-10.308-5.315-14.23
				c5.742-3.922,4.957-5.059,9.796-8.268c4.839-3.209,15.098-6.188,17.565-1.966c2.466,4.222,4.448,2.765,8.164,2.259
				c3.716-0.507,6.587,6.587,7.234,9.965C447.769,240.969,444.391,250.934,444.391,250.934z"/>
		</g>
		<g id="XMLID_336_">
			<path id="XMLID_266_" style="fill:#FDA939;" d="M491.503,188.327"/>
			<g id="XMLID_163_">
				<path id="XMLID_254_" style="fill:#FDA939;" d="M491.503,189.815c1.915,0,1.919-2.977,0-2.977
					C489.588,186.839,489.585,189.815,491.503,189.815L491.503,189.815z"/>
			</g>
		</g>
		<g id="XMLID_337_">
			<path id="XMLID_283_" style="fill:#FDA939;" d="M164.699,350.087"/>
			<g id="XMLID_269_">
				<path id="XMLID_281_" style="fill:#FDA939;" d="M164.699,351.576c1.915,0,1.918-2.977,0-2.977
					C162.783,348.599,162.78,351.576,164.699,351.576L164.699,351.576z"/>
			</g>
		</g>
		<g id="XMLID_496_">
			<g id="XMLID_352_">
				<path id="XMLID_355_" style="fill:#1E44C1;" d="M144.201,170.651"/>
				<g id="XMLID_353_">
					<path id="XMLID_354_" style="fill:#1E44C1;" d="M144.201,174.318c4.718,0,4.726-7.332,0-7.332
						C139.483,166.985,139.475,174.318,144.201,174.318L144.201,174.318z"/>
				</g>
			</g>
		</g>
		<g id="XMLID_519_">
			<path id="XMLID_308_" style="fill:#FDA939;" d="M515.315,321.348"/>
			<g id="XMLID_285_">
				<path id="XMLID_307_" style="fill:#FDA939;" d="M515.315,324.325c3.831,0,3.837-5.953,0-5.953
					C511.485,318.371,511.479,324.325,515.315,324.325L515.315,324.325z"/>
			</g>
		</g>
		<path id="XMLID_368_" style="fill:#5A6CF2;" d="M231.905,370.638h22.943v5.607h-28.55l0,0
			C226.298,373.149,228.808,370.638,231.905,370.638z"/>
		<g id="XMLID_312_">
			<path id="XMLID_255_" style="fill:#6774FF;" d="M341.34,314.779h-72.785c-2.937,0-5.714,2.381-6.203,5.317L253,376.246h83.419
				l9.352-56.149C346.261,317.16,344.276,314.779,341.34,314.779z"/>
			<path id="XMLID_284_" style="fill:#94A1FF;" d="M307.688,345.512c0,4.341-3.519,7.859-7.859,7.859
				c-4.34,0-7.859-3.519-7.859-7.859c0-4.341,3.519-7.859,7.859-7.859C304.169,337.653,307.688,341.172,307.688,345.512z"/>
		</g>
		
			<line id="XMLID_16_" style="fill:none;stroke:#1730A3;stroke-width:6;stroke-linecap:round;stroke-linejoin:round;stroke-miterlimit:10;" x1="168.009" y1="379.533" x2="536.28" y2="379.533"/>
		<g id="XMLID_261_">
			
				<linearGradient id="XMLID_00000003093188266377764540000012486937426696937874_" gradientUnits="userSpaceOnUse" x1="356.2594" y1="314.7792" x2="356.2594" y2="137.4007">
				<stop  offset="0" style="stop-color:#FFFFFF;stop-opacity:0"/>
				<stop  offset="1" style="stop-color:#FFBC49;stop-opacity:0.3"/>
			</linearGradient>
			
				<rect id="XMLID_465_" x="316.131" y="152.981" style="fill:url(#XMLID_00000003093188266377764540000012486937426696937874_);" width="80.257" height="149.554"/>
			
				<linearGradient id="XMLID_00000158010478389331040210000005753251244256011453_" gradientUnits="userSpaceOnUse" x1="356.2594" y1="314.7792" x2="356.2594" y2="137.4007">
				<stop  offset="0" style="stop-color:#FFFFFF;stop-opacity:0"/>
				<stop  offset="1" style="stop-color:#FFBC49;stop-opacity:0.3"/>
			</linearGradient>
			
				<rect id="XMLID_4_" x="316.131" y="152.981" style="fill:url(#XMLID_00000158010478389331040210000005753251244256011453_);" width="80.257" height="149.554"/>
			<g id="XMLID_370_">
				<path id="XMLID_279_" style="fill:#FFBC49;" d="M366.554,151.193c0,5.686-4.609,10.295-10.294,10.295
					c-5.685,0-10.294-4.609-10.294-10.295c0-5.685,4.609-10.294,10.294-10.294C361.945,140.899,366.554,145.508,366.554,151.193z"/>
				<path id="XMLID_258_" style="fill:#253FB8;" d="M396.388,152.981h-80.257v-9.372c0-17.017,13.795-30.812,30.812-30.812h18.633
					c17.017,0,30.812,13.795,30.812,30.812V152.981z"/>
				<path id="XMLID_268_" style="fill:#253FB8;" d="M355.224,98.62L355.224,98.62c4.081,0,7.39,3.309,7.39,7.39v8.622
					c0,4.081-3.309,7.39-7.39,7.39l0,0c-4.081,0-7.39-3.309-7.39-7.39v-8.622C347.834,101.929,351.143,98.62,355.224,98.62z"/>
				
					<line id="XMLID_276_" style="fill:none;stroke:#253FB8;stroke-width:2;stroke-miterlimit:10;" x1="355.028" y1="107.132" x2="355.028" y2="0"/>
			</g>
		</g>
		
			<ellipse id="XMLID_2_" transform="matrix(0.2334 -0.9724 0.9724 0.2334 91.2139 324.5822)" style="fill:#FFBC49;" cx="251.452" cy="104.445" rx="36.097" ry="36.097"/>
		
			<ellipse id="XMLID_10_" transform="matrix(0.9033 -0.4291 0.4291 0.9033 -133.1969 88.4154)" style="fill:#FFBC49;" cx="129.497" cy="339.624" rx="14.704" ry="14.704"/>
		
			<ellipse id="XMLID_26_" transform="matrix(0.2298 -0.9732 0.9732 0.2298 219.4258 706.0799)" style="fill:#253FB8;" cx="555.798" cy="214.412" rx="28.634" ry="28.634"/>
		<g id="XMLID_143_">
			<g id="XMLID_483_">
				<path id="XMLID_489_" style="fill:#1E44C1;" d="M557.763,144.595h-45.567c-1.101,0-1.993,0.892-1.993,1.993
					c0,1.101,0.892,1.993,1.993,1.993h45.567c1.101,0,1.993-0.892,1.993-1.993C559.757,145.488,558.864,144.595,557.763,144.595z"/>
				<path id="XMLID_488_" style="fill:#1E44C1;" d="M497.694,144.588h-8.904c-1.101,0-1.993,0.892-1.993,1.993
					c0,1.101,0.892,1.993,1.993,1.993h8.904c1.101,0,1.993-0.893,1.993-1.993C499.688,145.48,498.795,144.588,497.694,144.588z"/>
				<path id="XMLID_484_" style="fill:#1E44C1;" d="M536.354,160.472c0,1.101-0.892,1.994-1.993,1.994h-5.7
					c-1.101,0-1.993-0.893-1.993-1.994c0-1.101,0.892-1.993,1.993-1.993h5.7C535.462,158.479,536.354,159.371,536.354,160.472z
					 M520.688,160.472c0,1.101-0.892,1.994-1.993,1.994h-9.967c-1.1,0-1.993-0.893-1.993-1.994c0-1.101,0.893-1.993,1.993-1.993
					h9.967C519.796,158.479,520.688,159.371,520.688,160.472z M500.754,160.472c0,1.101-0.893,1.994-1.993,1.994h-9.967
					c-1.101,0-1.993-0.893-1.993-1.994c0-1.101,0.893-1.993,1.993-1.993h9.967C499.862,158.479,500.754,159.371,500.754,160.472z"/>
			</g>
		</g>
		<g id="XMLID_204_">
			<g id="XMLID_490_">
				<path id="XMLID_495_" style="fill:#1E44C1;" d="M257.432,123.965h-32.567c-1.101,0-1.993,0.892-1.993,1.993
					c0,1.101,0.892,1.993,1.993,1.993h32.567c1.101,0,1.993-0.892,1.993-1.993C259.426,124.857,258.533,123.965,257.432,123.965z"/>
				<path id="XMLID_494_" style="fill:#1E44C1;" d="M210.364,123.957h-8.904c-1.101,0-1.993,0.892-1.993,1.993
					c0,1.101,0.892,1.993,1.993,1.993h8.904c1.101,0,1.993-0.893,1.993-1.993C212.357,124.85,211.464,123.957,210.364,123.957z"/>
				<path id="XMLID_491_" style="fill:#1E44C1;" d="M233.357,139.842c0,1.101-0.892,1.994-1.993,1.994h-9.967
					c-1.101,0-1.993-0.893-1.993-1.994c0-1.101,0.893-1.993,1.993-1.993h9.967C232.465,137.848,233.357,138.74,233.357,139.842z
					 M213.423,139.842c0,1.101-0.893,1.994-1.993,1.994h-9.967c-1.101,0-1.993-0.893-1.993-1.994c0-1.101,0.893-1.993,1.993-1.993
					h9.967C212.531,137.848,213.423,138.74,213.423,139.842z"/>
			</g>
		</g>
		<g id="XMLID_87_">
			<path id="XMLID_142_" style="fill:#97A6F3;" d="M191.687,231.129c-0.528,0-0.956,0.428-0.956,0.956v2.217
				c0,0.528,0.428,0.956,0.956,0.956c0.528,0,0.956-0.428,0.956-0.956v-2.217C192.643,231.557,192.215,231.129,191.687,231.129z"/>
			<path id="XMLID_125_" style="fill:#97A6F3;" d="M189.186,228.904h-2.217c-0.528,0-0.956,0.428-0.956,0.956
				c0,0.528,0.428,0.956,0.956,0.956h2.217c0.528,0,0.956-0.428,0.956-0.956C190.142,229.333,189.714,228.904,189.186,228.904z"/>
			<path id="XMLID_107_" style="fill:#97A6F3;" d="M191.687,224.312c-0.528,0-0.956,0.428-0.956,0.956v2.216
				c0,0.528,0.428,0.956,0.956,0.956c0.528,0,0.956-0.428,0.956-0.956v-2.216C192.643,224.74,192.215,224.312,191.687,224.312z"/>
			<path id="XMLID_96_" style="fill:#97A6F3;" d="M196.406,228.752h-2.218c-0.528,0-0.956,0.428-0.956,0.956
				c0,0.528,0.428,0.956,0.956,0.956h2.218c0.528,0,0.956-0.428,0.956-0.956C197.362,229.18,196.934,228.752,196.406,228.752z"/>
		</g>
		<path id="XMLID_86_" style="fill:#FFBC49;" d="M311.123,108.236c0,0,1.571,11.219-11.534,10.963c0,0,11.261,0.115,10.958,10.645
			c0,0,1.014-8.285,11.345-10.136C321.893,119.708,313.162,121.71,311.123,108.236z"/>
		<path id="XMLID_43_" style="fill:#FFBC49;" d="M322.017,105.76c0,0,0.759,5.422-5.574,5.298c0,0,5.443,0.056,5.296,5.145
			c0,0,0.49-4.004,5.483-4.899C327.223,111.305,323.003,112.272,322.017,105.76z"/>
		<g id="XMLID_316_">
			<path id="XMLID_327_" style="fill:#253FB8;" d="M544.306,257.981c-0.528,0-0.956,0.428-0.956,0.956v2.217
				c0,0.528,0.428,0.956,0.956,0.956c0.528,0,0.956-0.428,0.956-0.956v-2.217C545.261,258.409,544.833,257.981,544.306,257.981z"/>
			<path id="XMLID_325_" style="fill:#253FB8;" d="M541.805,255.757h-2.217c-0.528,0-0.956,0.428-0.956,0.956
				c0,0.528,0.428,0.956,0.956,0.956h2.217c0.528,0,0.956-0.428,0.956-0.956C542.76,256.185,542.332,255.757,541.805,255.757z"/>
			<path id="XMLID_322_" style="fill:#253FB8;" d="M544.306,251.164c-0.528,0-0.956,0.428-0.956,0.956v2.216
				c0,0.528,0.428,0.956,0.956,0.956c0.528,0,0.956-0.428,0.956-0.956v-2.216C545.261,251.592,544.833,251.164,544.306,251.164z"/>
			<path id="XMLID_321_" style="fill:#253FB8;" d="M549.025,255.605h-2.218c-0.528,0-0.956,0.428-0.956,0.956
				c0,0.528,0.428,0.956,0.956,0.956h2.218c0.528,0,0.956-0.428,0.956-0.956C549.98,256.032,549.552,255.605,549.025,255.605z"/>
		</g>
		<g id="XMLID_328_">
			<path id="XMLID_358_" style="fill:#253FB8;" d="M263.344,204.116c-0.528,0-0.956,0.428-0.956,0.956v2.217
				c0,0.528,0.428,0.956,0.956,0.956c0.528,0,0.956-0.428,0.956-0.956v-2.217C264.3,204.544,263.872,204.116,263.344,204.116z"/>
			<path id="XMLID_351_" style="fill:#253FB8;" d="M260.843,201.892h-2.217c-0.528,0-0.956,0.428-0.956,0.956
				c0,0.528,0.428,0.956,0.956,0.956h2.217c0.528,0,0.956-0.428,0.956-0.956C261.799,202.32,261.371,201.892,260.843,201.892z"/>
			<path id="XMLID_338_" style="fill:#253FB8;" d="M263.344,197.299c-0.528,0-0.956,0.428-0.956,0.956v2.216
				c0,0.528,0.428,0.956,0.956,0.956c0.528,0,0.956-0.428,0.956-0.956v-2.216C264.3,197.727,263.872,197.299,263.344,197.299z"/>
			<path id="XMLID_329_" style="fill:#253FB8;" d="M268.063,201.74h-2.218c-0.528,0-0.955,0.428-0.955,0.956
				c0,0.528,0.428,0.956,0.955,0.956h2.218c0.528,0,0.956-0.428,0.956-0.956C269.019,202.167,268.591,201.74,268.063,201.74z"/>
		</g>
	</g>
</g>
<g id="DESIGNED_BY_FREEPIK">
	<g id="XMLID_1_">
		<g id="XMLID_776_">
			<g id="XMLID_805_">
				<g id="XMLID_824_">
					<path id="XMLID_832_" style="fill:#393E41;" d="M385.104,465.47c-0.433,0.443-0.804,0.932-1.108,1.453l-0.465-0.241
						c-0.067-0.297-0.349-0.502-0.659-0.466c-0.331,0.039-0.567,0.339-0.529,0.67c0.039,0.331,0.339,0.567,0.67,0.528
						c0.065-0.007,0.127-0.025,0.184-0.052l0.451,0.234c-0.251,0.554-0.433,1.139-0.539,1.743l0.747,0.132
						c0.23-1.306,0.85-2.507,1.792-3.473L385.104,465.47z"/>
					<path id="XMLID_831_" style="fill:#393E41;" d="M390.591,463.168c-0.171,0-0.341,0.006-0.509,0.017l-0.074-0.626
						c0.188-0.149,0.296-0.389,0.266-0.645c-0.046-0.393-0.402-0.674-0.795-0.628c-0.394,0.046-0.675,0.402-0.628,0.796
						c0.03,0.254,0.189,0.461,0.404,0.563l0.073,0.624c-0.714,0.116-1.402,0.332-2.06,0.645l0.327,0.685
						c0.935-0.447,1.941-0.674,2.995-0.674c0.497,0,0.993,0.053,1.476,0.158l0.16-0.741
						C391.692,463.227,391.142,463.168,390.591,463.168z"/>
					<path id="XMLID_830_" style="fill:#393E41;" d="M397.194,465.715c0.331-0.04,0.566-0.341,0.525-0.672
						c-0.04-0.331-0.341-0.566-0.672-0.525c-0.31,0.038-0.535,0.304-0.53,0.608l-0.416,0.363c-0.418-0.43-0.89-0.813-1.407-1.14
						l-0.404,0.642c1.135,0.715,2.021,1.727,2.564,2.925l0.69-0.313c-0.251-0.554-0.567-1.071-0.942-1.545l0.402-0.351
						C397.065,465.72,397.129,465.724,397.194,465.715z"/>
					<path id="XMLID_829_" style="fill:#393E41;" d="M390.045,473.376c-0.386,0.023-0.775,0.035-1.157,0.035
						c-0.88,0-1.733-0.061-2.479-0.18c-0.391-0.061-0.846-0.154-1.27-0.292c1.047,1.861,3.069,3.125,5.389,3.125
						c2.855,0,5.263-1.916,5.949-4.503c-0.682,0.449-1.505,0.825-2.458,1.122C392.839,473.052,391.464,473.292,390.045,473.376z"/>
					<path id="XMLID_825_" style="fill:#393E41;" d="M390.591,464.685c-3.352,0-6.079,2.666-6.079,5.943
						c0,0.425,0.046,0.849,0.137,1.261c0.674,0.483,2.706,0.891,5.348,0.731c2.88-0.174,5.297-0.958,6.672-2.159
						c-0.005-0.194-0.021-0.39-0.045-0.581C396.244,466.918,393.65,464.685,390.591,464.685z M388.432,471.2
						c-1.02,0-1.85-0.83-1.85-1.85c0-1.021,0.83-1.85,1.85-1.85c1.019,0,1.85,0.83,1.85,1.85
						C390.282,470.37,389.452,471.2,388.432,471.2z M393.17,470.292c-0.75,0-1.36-0.61-1.36-1.36s0.61-1.36,1.36-1.36
						s1.36,0.61,1.36,1.36S393.92,470.292,393.17,470.292z"/>
				</g>
				<path id="XMLID_822_" style="fill:#393E41;" d="M406.595,466.552c-0.295-0.116-0.806-0.31-1.383-0.238
					c-0.551,0.069-0.844,0.341-0.844,1.007v0.866h2.229v1.717h-2.229v5.455h-1.932v-5.455h-1.339v-1.717h1.339v-0.889
					c0-1.68,0.896-2.782,2.568-2.782c0.643,0,1.157,0.121,1.59,0.308V466.552z"/>
				<path id="XMLID_820_" style="fill:#393E41;" d="M411.298,469.883c-0.177-0.029-0.357-0.046-0.525-0.046
					c-0.896,0-1.51,0.548-1.51,1.613v3.908h-1.933v-7.172h1.873v0.784c0.451-0.673,1.14-0.977,2.021-0.977
					c0.414,0,0.848,0.128,1.095,0.337L411.298,469.883z"/>
				<path id="XMLID_817_" style="fill:#393E41;" d="M418.966,471.762c0,0.222-0.016,0.488-0.037,0.651h-5.085
					c0.207,1.036,0.933,1.487,1.843,1.487c0.622,0,1.295-0.252,1.813-0.689l1.133,1.243c-0.814,0.748-1.851,1.089-3.057,1.089
					c-2.198,0-3.724-1.496-3.724-3.753c0-2.258,1.48-3.797,3.627-3.797C417.544,467.995,418.958,469.527,418.966,471.762z
					 M413.851,471.096h3.175c-0.178-0.918-0.733-1.436-1.562-1.436C414.554,469.66,414.021,470.208,413.851,471.096z"/>
				<path id="XMLID_814_" style="fill:#393E41;" d="M426.619,471.762c0,0.222-0.016,0.488-0.037,0.651h-5.085
					c0.207,1.036,0.933,1.487,1.843,1.487c0.622,0,1.296-0.252,1.814-0.689l1.133,1.243c-0.814,0.748-1.851,1.089-3.058,1.089
					c-2.198,0-3.723-1.496-3.723-3.753c0-2.258,1.481-3.797,3.627-3.797C425.197,467.995,426.611,469.527,426.619,471.762z
					 M421.505,471.096h3.175c-0.178-0.918-0.733-1.436-1.562-1.436C422.208,469.66,421.675,470.208,421.505,471.096z"/>
				<path id="XMLID_811_" style="fill:#393E41;" d="M434.965,471.769c0,2.154-1.495,3.775-3.472,3.775
					c-0.962,0-1.643-0.378-2.109-0.933v3.708h-1.925v-10.133h1.888v0.792c0.467-0.585,1.154-0.984,2.139-0.984
					C433.469,467.995,434.965,469.616,434.965,471.769z M429.287,471.769c0,1.133,0.748,1.977,1.844,1.977
					c1.14,0,1.85-0.881,1.85-1.977c0-1.095-0.71-1.976-1.85-1.976C430.035,469.793,429.287,470.637,429.287,471.769z"/>
				<path id="XMLID_808_" style="fill:#393E41;" d="M438.068,465.84c0,0.696-0.541,1.229-1.236,1.229
					c-0.696,0-1.229-0.533-1.229-1.229c0-0.695,0.532-1.243,1.229-1.243C437.527,464.597,438.068,465.145,438.068,465.84z
					 M437.808,475.359h-1.932v-7.172h1.932V475.359z"/>
				<path id="XMLID_806_" style="fill:#393E41;" d="M441.032,470.741l2.702-2.554h2.368l-3.478,3.375l3.501,3.797h-2.376
					l-2.717-2.901v2.901H439.1v-10.658h1.932V470.741z"/>
			</g>
			<g id="XMLID_777_">
				<path id="XMLID_802_" style="fill:#393E41;" d="M309.412,475.294v-1.055c-0.527,0.718-1.391,1.23-2.387,1.23
					c-1.846,0-3.15-1.406-3.15-3.706c0-2.256,1.289-3.721,3.15-3.721c0.952,0,1.816,0.469,2.387,1.245v-3.765h1.099v9.771H309.412z
					 M309.412,473.375v-3.208c-0.395-0.615-1.245-1.143-2.124-1.143c-1.42,0-2.27,1.172-2.27,2.739c0,1.567,0.85,2.725,2.27,2.725
					C308.168,474.489,309.017,473.991,309.412,473.375z"/>
				<path id="XMLID_799_" style="fill:#393E41;" d="M311.932,471.75c0-2.051,1.465-3.706,3.486-3.706
					c2.139,0,3.398,1.67,3.398,3.794v0.278h-5.727c0.088,1.333,1.025,2.446,2.549,2.446c0.806,0,1.626-0.322,2.182-0.894
					l0.527,0.718c-0.703,0.703-1.655,1.084-2.812,1.084C313.441,475.47,311.932,473.961,311.932,471.75z M315.404,468.952
					c-1.509,0-2.256,1.274-2.314,2.358h4.644C317.718,470.255,317.015,468.952,315.404,468.952z"/>
				<path id="XMLID_797_" style="fill:#393E41;" d="M319.607,474.357l0.571-0.791c0.469,0.542,1.362,1.011,2.329,1.011
					c1.084,0,1.67-0.513,1.67-1.216c0-1.714-4.38-0.659-4.38-3.281c0-1.099,0.952-2.036,2.636-2.036
					c1.202,0,2.051,0.454,2.623,1.025l-0.513,0.762c-0.424-0.513-1.201-0.893-2.109-0.893c-0.966,0-1.567,0.483-1.567,1.113
					c0,1.553,4.379,0.527,4.379,3.281c0,1.186-0.952,2.139-2.783,2.139C321.306,475.47,320.325,475.119,319.607,474.357z"/>
				<path id="XMLID_794_" style="fill:#393E41;" d="M326.477,466.476c0-0.41,0.337-0.747,0.732-0.747
					c0.41,0,0.747,0.337,0.747,0.747c0,0.41-0.337,0.732-0.747,0.732C326.814,467.208,326.477,466.886,326.477,466.476z
					 M326.667,475.294v-7.075h1.099v7.075H326.667z"/>
				<path id="XMLID_791_" style="fill:#393E41;" d="M329.582,477.111l0.556-0.82c0.586,0.703,1.289,0.967,2.3,0.967
					c1.172,0,2.271-0.571,2.271-2.124v-1.011c-0.513,0.718-1.377,1.26-2.373,1.26c-1.846,0-3.149-1.377-3.149-3.662
					c0-2.271,1.289-3.677,3.149-3.677c0.952,0,1.802,0.469,2.373,1.245v-1.069h1.099v6.87c0,2.344-1.641,3.076-3.369,3.076
					C331.237,478.166,330.417,477.93,329.582,477.111z M334.709,473.258v-3.091c-0.381-0.615-1.23-1.143-2.109-1.143
					c-1.421,0-2.27,1.128-2.27,2.695c0,1.553,0.849,2.695,2.27,2.695C333.478,474.416,334.328,473.874,334.709,473.258z"/>
				<path id="XMLID_789_" style="fill:#393E41;" d="M342.413,475.294v-4.629c0-1.245-0.63-1.641-1.582-1.641
					c-0.864,0-1.685,0.527-2.094,1.099v5.171h-1.099v-7.075h1.099v1.025c0.497-0.586,1.464-1.201,2.519-1.201
					c1.479,0,2.256,0.747,2.256,2.285v4.966H342.413z"/>
				<path id="XMLID_786_" style="fill:#393E41;" d="M344.932,471.75c0-2.051,1.465-3.706,3.486-3.706
					c2.139,0,3.398,1.67,3.398,3.794v0.278h-5.727c0.088,1.333,1.025,2.446,2.548,2.446c0.806,0,1.626-0.322,2.182-0.894
					l0.527,0.718c-0.703,0.703-1.655,1.084-2.813,1.084C346.441,475.47,344.932,473.961,344.932,471.75z M348.404,468.952
					c-1.509,0-2.256,1.274-2.314,2.358h4.643C350.718,470.255,350.015,468.952,348.404,468.952z"/>
				<path id="XMLID_783_" style="fill:#393E41;" d="M358.35,475.294v-1.055c-0.527,0.718-1.392,1.23-2.388,1.23
					c-1.845,0-3.149-1.406-3.149-3.706c0-2.256,1.289-3.721,3.149-3.721c0.952,0,1.817,0.469,2.388,1.245v-3.765h1.098v9.771H358.35
					z M358.35,473.375v-3.208c-0.396-0.615-1.245-1.143-2.124-1.143c-1.421,0-2.271,1.172-2.271,2.739
					c0,1.567,0.85,2.725,2.271,2.725C357.105,474.489,357.954,473.991,358.35,473.375z"/>
				<path id="XMLID_780_" style="fill:#393E41;" d="M364.692,475.294v-9.771h1.099v3.765c0.571-0.776,1.421-1.245,2.388-1.245
					c1.845,0,3.149,1.465,3.149,3.721c0,2.3-1.304,3.706-3.149,3.706c-0.996,0-1.86-0.513-2.388-1.23v1.055H364.692z M367.9,474.489
					c1.435,0,2.285-1.157,2.285-2.725c0-1.567-0.85-2.739-2.285-2.739c-0.864,0-1.729,0.527-2.109,1.143v3.208
					C366.172,473.991,367.036,474.489,367.9,474.489z"/>
				<path id="XMLID_778_" style="fill:#393E41;" d="M372.529,477.067c0.161,0.073,0.425,0.117,0.601,0.117
					c0.483,0,0.806-0.161,1.055-0.747l0.469-1.069l-2.959-7.148h1.187l2.358,5.801l2.344-5.801h1.2l-3.545,8.511
					c-0.425,1.024-1.143,1.421-2.08,1.436c-0.234,0-0.601-0.044-0.806-0.103L372.529,477.067z"/>
			</g>
		</g>
	</g>
</g>
</svg>
